<mxfile host="app.diagrams.net" modified="2024-02-17T16:22:39.725Z" agent="Mozilla/5.0 (X11; Linux x86_64; rv:122.0) Gecko/20100101 Firefox/122.0" etag="qR6re12Bp_mO9pt5V-0W" version="23.1.5" type="github">
  <diagram name="Page-1" id="i6WeV55Hnm80UKIriWFR">
    <mxGraphModel dx="880" dy="446" grid="1" gridSize="10" guides="1" tooltips="1" connect="1" arrows="1" fold="1" page="1" pageScale="1" pageWidth="850" pageHeight="1100" math="0" shadow="0">
      <root>
        <mxCell id="0" />
        <mxCell id="1" parent="0" />
        <mxCell id="rgPkUCg0Z38JKq7z394j-26" value="" style="edgeStyle=orthogonalEdgeStyle;rounded=0;orthogonalLoop=1;jettySize=auto;html=1;" edge="1" parent="1" source="rgPkUCg0Z38JKq7z394j-1" target="rgPkUCg0Z38JKq7z394j-2">
          <mxGeometry relative="1" as="geometry" />
        </mxCell>
        <mxCell id="rgPkUCg0Z38JKq7z394j-30" value="" style="edgeStyle=orthogonalEdgeStyle;rounded=0;orthogonalLoop=1;jettySize=auto;html=1;" edge="1" parent="1" source="rgPkUCg0Z38JKq7z394j-1" target="rgPkUCg0Z38JKq7z394j-6">
          <mxGeometry relative="1" as="geometry" />
        </mxCell>
        <mxCell id="rgPkUCg0Z38JKq7z394j-1" value="" style="whiteSpace=wrap;html=1;aspect=fixed;" vertex="1" parent="1">
          <mxGeometry x="280" y="160" width="280" height="280" as="geometry" />
        </mxCell>
        <mxCell id="rgPkUCg0Z38JKq7z394j-23" value="" style="edgeStyle=orthogonalEdgeStyle;rounded=0;orthogonalLoop=1;jettySize=auto;html=1;" edge="1" parent="1" source="rgPkUCg0Z38JKq7z394j-2">
          <mxGeometry relative="1" as="geometry">
            <mxPoint x="280" y="300" as="targetPoint" />
          </mxGeometry>
        </mxCell>
        <mxCell id="rgPkUCg0Z38JKq7z394j-2" value="&lt;div&gt;&lt;font style=&quot;font-size: 14px;&quot;&gt;Outline&amp;nbsp;&lt;/font&gt;&lt;/div&gt;&lt;div&gt;&lt;font style=&quot;font-size: 12px;&quot;&gt;Description&lt;/font&gt;&lt;/div&gt;" style="rounded=1;whiteSpace=wrap;html=1;" vertex="1" parent="1">
          <mxGeometry x="120" y="275" width="120" height="50" as="geometry" />
        </mxCell>
        <mxCell id="rgPkUCg0Z38JKq7z394j-13" value="" style="edgeStyle=orthogonalEdgeStyle;rounded=0;orthogonalLoop=1;jettySize=auto;html=1;" edge="1" parent="1">
          <mxGeometry relative="1" as="geometry">
            <mxPoint x="436" y="242" as="sourcePoint" />
            <mxPoint x="436" y="270" as="targetPoint" />
          </mxGeometry>
        </mxCell>
        <mxCell id="rgPkUCg0Z38JKq7z394j-3" value="Specification" style="rounded=0;whiteSpace=wrap;html=1;" vertex="1" parent="1">
          <mxGeometry x="320" y="182" width="200" height="60" as="geometry" />
        </mxCell>
        <mxCell id="rgPkUCg0Z38JKq7z394j-14" value="" style="edgeStyle=orthogonalEdgeStyle;rounded=0;orthogonalLoop=1;jettySize=auto;html=1;" edge="1" parent="1">
          <mxGeometry relative="1" as="geometry">
            <mxPoint x="439" y="330" as="sourcePoint" />
            <mxPoint x="439" y="362" as="targetPoint" />
          </mxGeometry>
        </mxCell>
        <mxCell id="rgPkUCg0Z38JKq7z394j-24" value="" style="edgeStyle=orthogonalEdgeStyle;rounded=0;orthogonalLoop=1;jettySize=auto;html=1;" edge="1" parent="1">
          <mxGeometry relative="1" as="geometry">
            <mxPoint x="405" y="270" as="sourcePoint" />
            <mxPoint x="405" y="242" as="targetPoint" />
          </mxGeometry>
        </mxCell>
        <mxCell id="rgPkUCg0Z38JKq7z394j-4" value="Development" style="rounded=0;whiteSpace=wrap;html=1;" vertex="1" parent="1">
          <mxGeometry x="320" y="270" width="200" height="60" as="geometry" />
        </mxCell>
        <mxCell id="rgPkUCg0Z38JKq7z394j-25" value="" style="edgeStyle=orthogonalEdgeStyle;rounded=0;orthogonalLoop=1;jettySize=auto;html=1;" edge="1" parent="1">
          <mxGeometry relative="1" as="geometry">
            <mxPoint x="406" y="362" as="sourcePoint" />
            <mxPoint x="406" y="330" as="targetPoint" />
          </mxGeometry>
        </mxCell>
        <mxCell id="rgPkUCg0Z38JKq7z394j-5" value="Validation" style="rounded=0;whiteSpace=wrap;html=1;" vertex="1" parent="1">
          <mxGeometry x="320" y="362" width="200" height="60" as="geometry" />
        </mxCell>
        <mxCell id="rgPkUCg0Z38JKq7z394j-20" value="" style="edgeStyle=orthogonalEdgeStyle;rounded=0;orthogonalLoop=1;jettySize=auto;html=1;" edge="1" parent="1">
          <mxGeometry relative="1" as="geometry">
            <mxPoint x="600" y="288" as="sourcePoint" />
            <mxPoint x="560" y="288" as="targetPoint" />
          </mxGeometry>
        </mxCell>
        <mxCell id="rgPkUCg0Z38JKq7z394j-6" value="&lt;div&gt;Intermediate&lt;/div&gt;&lt;div&gt;Version&lt;br&gt;&lt;/div&gt;" style="rounded=1;whiteSpace=wrap;html=1;" vertex="1" parent="1">
          <mxGeometry x="600" y="270" width="130" height="60" as="geometry" />
        </mxCell>
        <mxCell id="rgPkUCg0Z38JKq7z394j-17" value="" style="edgeStyle=orthogonalEdgeStyle;rounded=0;orthogonalLoop=1;jettySize=auto;html=1;" edge="1" parent="1">
          <mxGeometry relative="1" as="geometry">
            <mxPoint x="600" y="198" as="sourcePoint" />
            <mxPoint x="560" y="198" as="targetPoint" />
          </mxGeometry>
        </mxCell>
        <mxCell id="rgPkUCg0Z38JKq7z394j-7" value="&lt;div&gt;Initail &lt;br&gt;&lt;/div&gt;&lt;div&gt;Version&lt;br&gt;&lt;/div&gt;" style="rounded=1;whiteSpace=wrap;html=1;" vertex="1" parent="1">
          <mxGeometry x="600" y="180" width="130" height="60" as="geometry" />
        </mxCell>
        <mxCell id="rgPkUCg0Z38JKq7z394j-8" value="Final Version" style="rounded=1;whiteSpace=wrap;html=1;" vertex="1" parent="1">
          <mxGeometry x="600" y="360" width="130" height="60" as="geometry" />
        </mxCell>
        <mxCell id="rgPkUCg0Z38JKq7z394j-35" value="" style="edgeStyle=orthogonalEdgeStyle;rounded=0;orthogonalLoop=1;jettySize=auto;html=1;" edge="1" parent="1">
          <mxGeometry relative="1" as="geometry">
            <mxPoint x="560" y="393" as="sourcePoint" />
            <mxPoint x="600" y="393" as="targetPoint" />
          </mxGeometry>
        </mxCell>
        <mxCell id="rgPkUCg0Z38JKq7z394j-36" value="" style="edgeStyle=orthogonalEdgeStyle;rounded=0;orthogonalLoop=1;jettySize=auto;html=1;" edge="1" parent="1">
          <mxGeometry relative="1" as="geometry">
            <mxPoint x="560" y="220" as="sourcePoint" />
            <mxPoint x="600" y="220" as="targetPoint" />
          </mxGeometry>
        </mxCell>
      </root>
    </mxGraphModel>
  </diagram>
</mxfile>
